# xmcd CD database file
#
# Track frame offsets:
#	150
#	19337
#	55878
#	94281
#	120361
#	150987
#	181541
#	226552
#	265558
#	306829
#
# Disc length: 4257 seconds
#
# Revision: 0
# Processed by: cddbd v1.5.2PL0 Copyright (c) Steve Scherf et al.
# Submitted via: CDex 1.51
#
DISCID=67109f0a
DTITLE=Marcin Wasilewski Trio - January
DYEAR=2008
DGENRE=Jazz
TTITLE0=The First Touch
TTITLE1=Vignette
TTITLE2=Cinema Paradiso
TTITLE3=Diamonds and Pearls
TTITLE4=Balladyna
TTITLE5=King Korn
TTITLE6=The Cat
TTITLE7=January
TTITLE8=The Young and Cinema
TTITLE9=New York 2007
EXTD=YEAR: 2008
EXTT0=
EXTT1=
EXTT2=
EXTT3=
EXTT4=
EXTT5=
EXTT6=
EXTT7=
EXTT8=
EXTT9=
PLAYORDER=
